<?xml version="1.0" standalone="no"?>
<!DOCTYPE svg PUBLIC "-//W3C//DTD SVG 20010904//EN"
 "http://www.w3.org/TR/2001/REC-SVG-20010904/DTD/svg10.dtd">
<svg version="1.0" xmlns="http://www.w3.org/2000/svg"
 width="300.000000pt" height="300.000000pt" viewBox="0 0 300.000000 300.000000"
 preserveAspectRatio="xMidYMid meet">
<metadata>
Created by potrace 1.13, written by Peter Selinger 2001-2015
</metadata>
<g transform="translate(0.000000,300.000000) scale(0.100000,-0.100000)"
fill="#000000" stroke="none">
<path d="M1465 2853 c-45 -12 -371 -208 -820 -494 -159 -102 -335 -211 -390
-244 -209 -122 -250 -167 -243 -266 5 -69 25 -96 80 -108 47 -11 82 2 214 79
142 82 600 364 927 568 142 89 262 162 267 162 4 0 149 -89 322 -198 725 -459
984 -612 1035 -612 101 0 164 101 118 190 -22 43 -125 122 -242 186 l-103 56
0 312 c0 266 -2 315 -16 334 -15 22 -15 22 -353 22 -394 0 -371 6 -371 -102 0
-35 -3 -67 -6 -71 -9 -9 -47 12 -202 109 -133 84 -156 92 -217 77z"/>
<path d="M1175 2212 c-396 -240 -640 -395 -746 -475 l-84 -63 -3 -749 c-2
-686 -1 -750 14 -767 15 -16 35 -18 199 -18 140 0 185 3 194 13 7 10 12 162
13 503 l3 489 295 3 c162 2 332 0 377 -3 l82 -7 3 -486 c2 -268 7 -493 11
-499 12 -18 1077 -19 1095 -1 9 9 12 195 12 775 l0 762 -87 59 c-236 159
-1036 652 -1056 652 -6 -1 -151 -85 -322 -188z m1284 -1068 l31 -6 0 -289 0
-289 -314 0 c-277 0 -315 2 -320 16 -9 22 -7 537 2 550 4 6 14 14 22 17 21 8
540 8 579 1z"/>
</g>
</svg>
